<svg width="32" height="32" viewBox="0 0 32 32" fill="none" xmlns="http://www.w3.org/2000/svg">
  <!-- Fondo minimalista -->
  <rect width="32" height="32" rx="6" fill="url(#gradient)"/>
  
  <!-- Contenedor del formulario -->
  <rect x="4" y="6" width="24" height="20" rx="2" fill="white"/>
  
  <!-- Líneas de campos de formulario - estados diferentes con grises -->
  <rect x="6" y="9" width="8" height="1.5" rx="0.75" fill="#000000"/>
  <rect x="16" y="9" width="8" height="1.5" rx="0.75" fill="#e0e0e0"/>
  
  <rect x="6" y="13" width="12" height="1.5" rx="0.75" fill="#000000"/>
  <rect x="20" y="13" width="4" height="1.5" rx="0.75" fill="#e0e0e0"/>
  
  <rect x="6" y="17" width="6" height="1.5" rx="0.75" fill="#000000"/>
  <rect x="14" y="17" width="10" height="1.5" rx="0.75" fill="#e0e0e0"/>
  
  <!-- Campo completo/activo en gris oscuro -->
  <rect x="6" y="21" width="18" height="1.5" rx="0.75" fill="#404040"/>
  
  <!-- Botón de acción minimalista -->
  <rect x="20" y="23" width="6" height="2" rx="1" fill="#000000"/>
  
  <!-- Ícono de configuración simplificado -->
  <circle cx="9" cy="24" r="1.5" fill="#666666" stroke="white" stroke-width="0.5"/>
  <rect x="8.5" y="22.5" width="1" height="3" fill="white"/>
  <rect x="7.5" y="23.5" width="3" height="1" fill="white"/>
  
  <!-- Definición del gradiente minimalista -->
  <defs>
    <linearGradient id="gradient" x1="0%" y1="0%" x2="100%" y2="100%">
      <stop offset="0%" style="stop-color:#f8f9fa;stop-opacity:1" />
      <stop offset="100%" style="stop-color:#e9ecef;stop-opacity:1" />
    </linearGradient>
  </defs>
</svg>